<svg width="1392" height="1225" viewBox="0 0 1392 1225" fill="none" xmlns="http://www.w3.org/2000/svg">
<mask id="mask0_4_119" style="mask-type:luminance" maskUnits="userSpaceOnUse" x="0" y="0" width="1392" height="1225">
<path d="M1391.28 0H0V1225H1391.28V0Z" fill="white"/>
</mask>
<g mask="url(#mask0_4_119)">
<path d="M301.592 82.4563C463.824 219.48 597.695 386.907 695.666 575.312C793.639 386.908 927.509 219.481 1089.74 82.4563C1204.84 -3.93777 1391.33 -70.8065 1391.33 141.924C1391.33 184.439 1366.98 498.838 1352.7 549.908C1303.05 727.367 1122.07 772.664 961.094 745.265C1242.48 793.134 1314.07 951.803 1159.44 1110.42C865.83 1411.7 737.446 1034.84 704.589 938.261C698.553 920.573 695.719 912.017 695.719 919.313C695.719 912.28 692.832 920.573 686.848 938.261C653.939 1034.84 525.555 1411.7 231.994 1110.42C77.3137 951.803 148.854 793.134 430.395 745.318C269.417 772.716 88.441 727.472 38.7881 549.96C24.3541 498.628 0 184.439 0 141.714C0 -70.8065 186.487 -3.93777 301.592 82.4563Z" fill="#1185FE"/>
</g>
</svg>
