<svg width="1365" height="937" viewBox="0 0 1365 937" fill="none" xmlns="http://www.w3.org/2000/svg">
<mask id="mask0_4_144" style="mask-type:luminance" maskUnits="userSpaceOnUse" x="0" y="0" width="1365" height="937">
<path d="M1364.28 0H0V936.81H1364.28V0Z" fill="white"/>
</mask>
<g mask="url(#mask0_4_144)">
<path d="M549.061 474.487C549.061 474.487 534.579 500.794 515.272 545.057C460.34 668.59 430.088 801.67 426.216 936.81H676.54C678.299 850.888 694.621 765.887 724.809 685.424C774.348 556.356 862.129 445.498 976.402 367.689C1090.68 289.879 1225.99 248.83 1364.23 250.035V0C1198.56 0.0864821 1035.86 44.0328 892.673 127.372C749.486 210.712 630.916 330.474 549.012 474.487" fill="#3760F3"/>
<path d="M515.468 545.111C509.048 536.712 502.531 528.458 495.725 520.397C434.957 448.052 359.092 389.884 273.454 349.975C187.816 310.066 94.4806 289.384 0 289.38L0 539.415C105.417 539.466 206.508 581.339 281.085 655.844C355.663 730.349 397.634 831.399 397.787 936.816H648.112C648.212 795.193 601.588 657.492 515.468 545.063" fill="#1437C1"/>
<path d="M426.457 936.857H648.158C648.259 795.234 601.635 657.534 515.514 545.104C460.582 668.637 430.329 801.717 426.457 936.857Z" fill="#101681"/>
</g>
</svg>
