<svg width="1224" height="1224" viewBox="0 0 1224 1224" fill="none" xmlns="http://www.w3.org/2000/svg">
<mask id="mask0_1_60" style="mask-type:luminance" maskUnits="userSpaceOnUse" x="0" y="0" width="1224" height="1224">
<path d="M1224 0H0V1224H1224V0Z" fill="white"/>
</mask>
<g mask="url(#mask0_1_60)">
<path d="M1224 612C1223.98 497.316 1191.74 384.945 1130.94 287.699C1070.15 190.454 983.258 112.246 880.171 61.9929C777.083 11.7399 661.95 -8.53628 547.897 3.4762C433.844 15.4887 325.461 59.3064 235.105 129.934C144.749 200.561 76.0558 295.155 36.8576 402.932C-2.34051 510.71 -10.4665 627.332 13.4062 739.504C37.2788 851.675 92.1894 954.882 171.878 1037.36C251.566 1119.83 352.825 1178.26 464.11 1205.97V798.985H337.968V612H464.162V531.399C464.162 323.084 558.493 226.552 762.878 226.552C807.625 227.193 852.198 232.284 895.937 241.75V411.284C881.473 409.764 856.423 408.978 825.241 408.978C724.883 408.978 686.103 446.972 686.103 545.811V611.947H885.98L851.654 798.985H686.155V1219.49C834.52 1201.37 971.126 1129.58 1070.21 1017.67C1169.28 905.765 1223.99 761.467 1224 612Z" fill="#0866FF"/>
</g>
</svg>
