<svg width="1385" height="615" viewBox="0 0 1385 615" fill="none" xmlns="http://www.w3.org/2000/svg">
<path d="M770.073 305.828C770.332 245.112 788.58 185.836 822.514 135.488C856.447 85.1391 904.543 45.9779 960.724 22.9527C1016.9 -0.0725867 1078.65 -5.92877 1138.16 6.12353C1197.67 18.1758 1252.27 47.595 1295.06 90.666C1337.85 133.737 1366.92 188.527 1378.59 248.111C1390.26 307.695 1384 369.401 1360.62 425.433C1337.23 481.464 1297.76 529.306 1247.19 562.914C1196.63 596.522 1137.23 614.389 1076.52 614.256C1036.08 614.372 996.012 606.459 958.65 590.976C921.288 575.493 887.371 552.747 858.866 524.058C830.36 495.368 807.834 461.305 792.592 423.844C777.35 386.383 769.696 346.269 770.073 305.828Z" fill="#FF0084"/>
<path d="M612.891 306.456C612.889 367.176 594.848 426.527 561.059 476.977C527.269 527.426 479.255 566.701 423.107 589.817C366.959 612.932 305.21 618.846 245.695 606.808C186.18 594.771 131.583 565.325 88.8313 522.207C46.0799 479.088 17.1015 424.24 5.57364 364.625C-5.95422 305.009 0.487999 243.313 24.0829 187.365C47.6778 131.417 87.3619 83.7402 138.099 50.3834C188.836 17.0267 248.338 -0.506052 309.056 0.0111202C389.869 0.724728 467.132 33.3222 524.033 90.712C580.934 148.102 612.869 225.64 612.891 306.456Z" fill="#0063DC"/>
</svg>
