<svg width="1266" height="1225" viewBox="0 0 1266 1225" fill="none" xmlns="http://www.w3.org/2000/svg">
<path d="M391.903 271.971C391.867 286.169 388.981 300.216 383.416 313.279C377.851 326.341 369.721 338.152 359.508 348.015C349.294 357.878 337.205 365.592 323.956 370.696C310.707 375.801 296.568 378.194 282.377 377.734C268.135 378.294 253.926 375.973 240.602 370.909C227.279 365.845 215.115 358.143 204.84 348.265C194.565 338.386 186.39 326.533 180.807 313.418C175.223 300.304 172.345 286.198 172.345 271.944C172.345 257.69 175.223 243.584 180.807 230.47C186.39 217.355 194.565 205.502 204.84 195.623C215.115 185.745 227.279 178.043 240.602 172.979C253.926 167.915 268.135 165.594 282.377 166.154C296.573 165.694 310.716 168.09 323.968 173.198C337.221 178.306 349.313 186.021 359.527 195.89C369.742 205.758 377.871 217.577 383.432 230.646C388.993 243.715 391.874 257.768 391.903 271.971Z" fill="white"/>
<path d="M377.722 458.897H186.98V1043.73H377.722V458.897Z" fill="white"/>
<path d="M1078.73 682.423V1044.49H888.751V724.913C888.751 630.278 847.024 601.259 794.116 601.259C778.248 601.383 762.582 604.838 748.134 611.399C733.685 617.961 720.776 627.484 710.24 639.351C699.705 651.218 691.779 665.165 686.975 680.289C682.172 695.413 680.597 711.379 682.354 727.15V1044.49H491.666V458.898H674.936V540.116H677.172C696.428 509.673 723.199 484.701 754.907 467.61C786.615 450.519 822.191 441.884 858.206 442.535C963.968 442.535 1078.73 503.626 1078.73 682.423Z" fill="white"/>
<path d="M1172.6 0.0118866H93.8714C81.7234 -0.182957 69.6563 2.01928 58.3608 6.49373C47.0652 10.9682 36.763 17.6282 28.0437 26.0891C19.3245 34.5499 12.3595 44.6458 7.54742 55.8016C2.73531 66.9575 0.170567 78.9522 0 91.1005V1134.81C0.212473 1146.91 2.81267 1158.84 7.65117 1169.92C12.4897 1181.01 19.4711 1191.03 28.1942 1199.41C36.9173 1207.79 47.2101 1214.36 58.4812 1218.74C69.7523 1223.13 81.7794 1225.25 93.8714 1224.98H1172.6C1184.64 1225.18 1196.59 1223 1207.79 1218.58C1218.99 1214.16 1229.2 1207.57 1237.85 1199.2C1246.49 1190.82 1253.41 1180.83 1258.19 1169.78C1262.97 1158.73 1265.52 1146.85 1265.71 1134.81V91.1005C1265.41 66.6855 1255.44 43.3873 1237.98 26.3121C1220.53 9.23691 1197.02 -0.221012 1172.6 0.0118866ZM282.323 377.733C268.081 378.293 253.872 375.972 240.548 370.908C227.224 365.844 215.06 358.142 204.786 348.263C194.511 338.385 186.336 326.532 180.752 313.417C175.169 300.303 172.291 286.196 172.291 271.943C172.291 257.689 175.169 243.583 180.752 230.468C186.336 217.354 194.511 205.504 204.786 195.626C215.06 185.747 227.224 178.045 240.548 172.981C253.872 167.917 268.081 165.596 282.323 166.156C296.566 165.596 310.775 167.917 324.098 172.981C337.422 178.045 349.586 185.747 359.861 195.626C370.136 205.504 378.31 217.354 383.894 230.468C389.478 243.583 392.356 257.689 392.356 271.943C392.356 286.196 389.478 300.303 383.894 313.417C378.31 326.532 370.136 338.385 359.861 348.263C349.586 358.142 337.422 365.844 324.098 370.908C310.775 375.972 296.566 378.293 282.323 377.733ZM377.667 458.951V1043.78H186.761V458.898L377.667 458.951ZM1078.68 1044.49H888.751V724.909C888.751 630.274 847.024 601.258 794.116 601.258C778.253 601.383 762.592 604.834 748.148 611.392C733.703 617.951 720.797 627.469 710.262 639.33C699.728 651.191 691.8 665.131 686.993 680.249C682.185 695.366 680.605 711.326 682.354 727.093V1044.43H491.447V458.951H674.717V540.169H676.954C696.209 509.726 722.981 484.754 754.689 467.663C786.397 450.572 821.972 441.937 857.987 442.588C963.75 442.588 1078.51 503.676 1078.51 682.583L1078.68 1044.49Z" fill="#0966C2"/>
</svg>
