<svg width="1149" height="1225" viewBox="0 0 1149 1225" fill="none" xmlns="http://www.w3.org/2000/svg">
<path d="M1144.08 272.149C1132.48 206.562 1100.19 146.411 1051.93 100.501C1003.68 54.5907 941.995 25.3328 875.911 17.0101C772.792 4.1925 668.873 -1.0683 564.986 1.26982H563.485C474.108 -2.68108 384.561 2.59358 296.266 17.0101C230.094 25.06 167.859 52.7781 117.61 96.5795C67.3608 140.381 31.4093 198.251 14.4044 262.705C1.78333 330.182 -2.56832 398.946 1.44601 467.476C5.10655 562.979 5.91191 658.409 14.5874 753.62C20.5608 816.826 31.0072 879.53 45.8482 941.259C73.6317 1055.28 186.267 1150.2 296.632 1188.86C414.739 1229.24 541.757 1235.93 663.454 1208.19C676.815 1205.11 690.03 1201.41 703.098 1197.2C734.783 1189.06 765.038 1176.12 792.817 1158.84C793.166 1158.59 793.443 1158.25 793.623 1157.85C793.822 1157.46 793.923 1157.02 793.915 1156.57V1064.44C793.914 1064.02 793.814 1063.6 793.623 1063.23C793.465 1062.85 793.18 1062.54 792.817 1062.35C792.506 1062.08 792.126 1061.9 791.719 1061.84C791.318 1061.79 790.912 1061.79 790.511 1061.84C712.577 1080.47 632.707 1089.8 552.576 1089.62C414.647 1089.62 377.493 1024.17 366.841 996.899C358.288 973.304 352.861 948.692 350.698 923.688C350.66 923.268 350.731 922.845 350.904 922.46C351.077 922.076 351.346 921.742 351.686 921.492C351.971 921.185 352.365 921.001 352.784 920.979H353.992C430.709 939.48 509.351 948.806 588.266 948.763C607.191 948.763 626.116 948.763 645.151 948.25C725.938 947.616 806.54 940.418 886.161 926.726C888.138 926.324 890.041 926.031 891.725 925.518C1014.83 901.908 1132.04 827.709 1143.9 639.777C1144.3 632.456 1145.51 562.284 1145.51 554.633C1149.83 460.509 1149.35 366.225 1144.08 272.149Z" fill="url(#paint0_linear_4_212)"/>
<path d="M949.014 419.964V746.631H819.431V429.628C819.431 362.896 791.648 328.854 735.239 328.854C678.83 328.854 641.931 369.12 641.931 448.663V622.173H513.264V448.663C513.264 369.083 482.076 328.854 419.847 328.854C357.618 328.854 335.655 362.933 335.655 429.628V746.631H205.926V419.964C202.877 362.451 221.12 305.829 257.173 260.914C276.017 240.811 299.054 225.1 324.649 214.895C350.245 204.691 377.771 200.244 405.278 201.868C432.784 203.493 459.596 211.15 483.813 224.295C508.029 237.441 529.056 255.754 545.403 277.936L577.579 332.002L609.866 277.936C625.857 253.146 648.117 233.024 674.39 219.608C700.663 206.192 730.013 199.959 759.471 201.54C785.575 199.799 811.72 204.272 835.76 214.593C859.801 224.914 881.051 240.789 897.767 260.914C933.764 305.846 951.921 362.478 948.758 419.964H949.014Z" fill="white"/>
<defs>
<linearGradient id="paint0_linear_4_212" x1="574.213" y1="1223.78" x2="574.213" y2="-1.22498" gradientUnits="userSpaceOnUse">
<stop stop-color="#6364FF"/>
<stop offset="1" stop-color="#563ACC"/>
</linearGradient>
</defs>
</svg>
