<svg width="1216" height="1217" viewBox="0 0 1216 1217" fill="none" xmlns="http://www.w3.org/2000/svg">
<path d="M607.998 1216C943.785 1216 1216 943.789 1216 608C1216 272.211 943.785 0 607.998 0C272.21 0 0 272.211 0 608C0 943.789 272.21 1216 607.998 1216Z" fill="white"/>
<path d="M607.998 0.724854C466.331 0.724335 329.112 50.1977 220.04 140.602C110.968 231.005 36.8923 356.663 10.6066 495.87C-15.6791 635.078 7.47576 779.093 76.0721 903.045C144.668 1027 254.399 1123.1 386.311 1174.76C378.154 1116.68 378.873 1057.69 388.446 999.826C398.859 952.188 459.565 697.857 459.565 697.857C447.425 669.31 441.378 638.545 441.811 607.527C441.811 522.924 490.855 459.614 552.03 459.614C562.902 459.454 573.683 461.622 583.648 465.973C593.613 470.324 602.532 476.756 609.806 484.839C617.08 492.921 622.54 502.467 625.82 512.835C629.1 523.202 630.124 534.15 628.823 544.945C618.019 613.868 601.119 681.696 578.322 747.63C574.902 761.068 574.687 775.122 577.696 788.659C580.704 802.195 586.851 814.837 595.641 825.562C604.43 836.287 615.617 844.797 628.299 850.405C640.981 856.013 654.803 858.563 668.652 857.849C776.736 857.849 859.933 744.09 859.933 579.829C861.04 546.485 855.181 513.277 842.729 482.325C830.278 451.374 811.507 423.359 787.617 400.072C763.727 376.784 735.242 358.734 703.983 347.077C672.723 335.42 639.376 330.412 606.071 332.37C570.527 330.793 535.031 336.442 501.733 348.979C468.435 361.515 438.027 380.676 412.348 405.304C386.669 429.931 366.254 459.514 352.338 492.259C338.421 525.004 331.293 560.233 331.384 595.813C331.5 645.564 347.154 694.036 376.159 734.458C378.334 736.803 379.869 739.667 380.617 742.776C381.364 745.885 381.299 749.135 380.428 752.212C376.159 771.424 365.486 812.657 363.351 821.195C360.488 831.608 354.084 834.681 342.526 829.006C266.461 793.447 218.771 683.228 218.771 593.626C219.031 402.501 358.405 226.16 620.597 226.16C831.09 226.16 995.454 376.208 995.454 577.434C995.454 787.199 863.213 955.729 680.418 955.729C653.21 956.694 626.194 950.817 601.845 938.638C577.496 926.458 556.591 908.366 541.044 886.016C541.044 886.016 510.483 1001.91 503.35 1030.39C485.462 1086.61 460.106 1140.18 427.962 1189.65C511.577 1215.53 599.793 1223.04 686.581 1211.69C773.369 1200.34 856.683 1170.38 930.829 1123.87C1004.98 1077.36 1068.21 1015.39 1116.2 942.195C1164.2 869 1195.82 786.304 1208.92 699.762C1222.02 613.22 1216.28 524.871 1192.09 440.751C1167.9 356.632 1125.84 278.727 1068.78 212.358C1011.71 145.989 940.995 92.7216 861.453 56.1967C781.911 19.6718 695.421 0.750406 607.894 0.724854H607.998Z" fill="#E60019"/>
</svg>
