<svg width="1215" height="1218" viewBox="0 0 1215 1218" fill="none" xmlns="http://www.w3.org/2000/svg">
<path d="M1214.05 156.518V1060.04C1212.81 1062.88 1211.85 1065.83 1211.19 1068.85C1207.57 1103.6 1192.88 1136.28 1169.29 1162.05C1145.7 1187.83 1114.45 1205.35 1080.15 1212.03L1057.43 1217.24H155.679L135.155 1212.91C96.4761 1205.63 61.6456 1184.83 36.8948 1154.22C12.1441 1123.62 -0.914403 1085.22 0.0498213 1045.87C0.0498213 759.058 0.0498213 472.246 0.0498213 185.435C0.0498213 173.191 0.779827 160.948 1.9261 148.964C5.28816 114.27 19.7035 81.5729 43.0516 55.6921C66.3997 29.8112 97.4465 12.1154 131.612 5.21065C139.636 3.54334 147.604 1.77151 155.628 0H1057.38C1060.21 1.24696 1063.17 2.2066 1066.19 2.8653C1100.93 6.54013 1133.57 21.2873 1159.3 44.9289C1185.02 68.5706 1202.47 99.8554 1209.05 134.167C1210.72 141.357 1212.39 148.911 1214.05 156.518ZM941.35 1027.63C964.276 1027.63 987.197 1027.22 1010.17 1027.63C1019.81 1027.63 1023.05 1025.18 1023.05 1015.08C1023.23 960.059 1017.22 905.197 1005.12 851.525C981.552 737.759 934.323 630.218 866.509 535.879C798.695 441.541 711.808 362.512 611.481 303.919C488.271 229.869 347.518 190.08 203.775 188.666C193.72 188.666 189.964 190.855 190.12 201.744C190.693 247.7 190.641 293.655 190.12 339.662C190.12 349.666 193.453 351.749 202.936 352.53C240.317 354.424 277.576 358.303 314.546 364.151C466.136 393.26 603.074 473.688 702.331 591.904C801.588 710.12 857.106 858.912 859.544 1013.25C859.544 1025.03 863.815 1028.05 874.809 1027.69C897.005 1027.11 919.206 1027.63 941.35 1027.63ZM190.33 634.826C199.813 635.764 207.993 636.912 216.382 637.276C269.884 639.265 322.183 653.734 369.098 679.531C430.844 710.948 482.864 758.587 519.582 817.336C556.3 876.084 576.329 943.724 577.511 1012.99C578.032 1024.46 581.574 1027.74 592.776 1027.58C637.845 1027.06 682.913 1027.11 728.243 1027.58C737.83 1027.58 742.102 1025.19 741.008 1014.97C737.673 983.971 736.946 952.449 731.162 922.021C707.77 797.886 642.489 685.536 546.225 603.744C449.961 521.951 328.545 475.67 202.262 472.63C192.935 472.317 189.966 475.13 190.018 484.665C190.487 530.255 190.018 575.793 190.018 621.384L190.33 634.826ZM190.33 913.318C189.95 928.199 192.58 943.004 198.058 956.845C203.535 970.686 211.748 983.279 222.208 993.87C232.667 1004.46 245.154 1012.83 258.925 1018.48C272.697 1024.13 287.469 1026.94 302.353 1026.75C324.596 1026.85 346.369 1020.36 364.926 1008.09C383.482 995.829 397.987 978.341 406.611 957.837C415.234 937.333 417.59 914.735 413.378 892.894C409.166 871.053 398.574 850.95 382.944 835.124C367.314 819.297 347.348 808.459 325.562 803.974C303.775 799.49 281.144 801.561 260.535 809.927C239.925 818.294 222.256 832.581 209.76 850.983C197.265 869.385 190.505 891.076 190.33 913.318Z" fill="#EA7819"/>
<path d="M941.352 1027.58C919.208 1027.58 897.011 1027.05 874.919 1027.58C863.873 1027.94 859.804 1024.92 859.648 1013.14C857.219 858.799 801.706 710.001 702.448 591.783C603.189 473.564 466.244 393.14 314.649 364.039C277.68 358.192 240.427 354.314 203.046 352.42C193.511 351.639 190.12 349.554 190.173 339.55C190.642 293.595 190.746 247.588 190.173 201.633C190.173 190.743 193.772 188.348 203.828 188.556C347.571 189.972 488.323 229.76 611.534 303.807C711.858 362.403 798.748 441.433 866.561 535.771C934.375 630.109 981.602 737.648 1005.18 851.414C1017.27 905.086 1023.28 959.949 1023.1 1014.97C1023.1 1025.07 1019.87 1027.78 1010.23 1027.52C987.197 1027.16 964.277 1027.58 941.352 1027.58Z" fill="white"/>
<path d="M190.277 634.84V621.397C190.277 575.807 190.277 530.269 190.277 484.678C190.277 475.144 193.195 472.329 202.47 472.642C328.665 475.845 449.947 522.226 546.077 604.046C642.206 685.867 707.371 798.179 730.696 922.241C736.479 952.721 737.207 984.192 740.542 1015.19C741.636 1025.61 737.416 1027.85 727.777 1027.8C682.707 1027.39 637.639 1027.28 592.309 1027.8C581.159 1027.8 577.618 1024.68 577.045 1013.21C575.857 943.946 555.826 876.31 519.109 817.562C482.392 758.815 430.374 711.174 368.632 679.753C321.716 653.957 269.418 639.487 215.915 637.497C207.943 636.923 199.76 635.777 190.277 634.84Z" fill="white"/>
<path d="M190.332 913.38C190.62 891.299 197.425 869.794 209.902 851.574C222.379 833.354 239.97 819.228 260.454 810.976C280.937 802.725 303.4 800.718 325.023 805.201C346.646 809.685 366.459 820.46 381.973 836.176C397.487 851.892 408.013 871.844 412.216 893.523C416.42 915.202 414.117 937.641 405.601 958.016C397.086 978.391 382.736 995.793 364.355 1008.03C345.975 1020.27 324.381 1026.81 302.298 1026.81C287.418 1027 272.655 1024.18 258.889 1018.52C245.124 1012.87 232.645 1004.5 222.191 993.91C211.737 983.32 203.527 970.728 198.053 956.89C192.579 943.053 189.952 928.256 190.332 913.38Z" fill="white"/>
</svg>
