<svg width="1021" height="1191" viewBox="0 0 1021 1191" fill="none" xmlns="http://www.w3.org/2000/svg">
<path fill-rule="evenodd" clip-rule="evenodd" d="M117.893 1051.65C-128.134 838.153 30.984 362.808 409.245 422.653V466.683C89.7862 451.767 -50.8216 832.834 117.893 1051.65ZM807.992 227.051C855.909 263.536 914.127 283.953 974.335 285.387V328.518C941.243 323.488 909.482 311.927 880.9 294.508C852.318 277.088 827.486 254.158 807.849 227.051H807.992ZM705.412 0C705.623 16.3099 707.174 32.575 710.049 48.6308H559.09V799.335C559.458 830.496 555.834 861.576 548.307 891.816C486.917 1027.18 313.026 1009.49 265.007 916.617C284.997 929.128 307.449 937.183 330.834 940.233C354.219 943.282 377.986 941.255 400.517 934.29C423.047 927.324 443.811 915.584 461.394 899.868C478.978 884.153 492.966 864.832 502.408 843.221C509.847 812.968 513.409 781.892 513.011 750.74V0H705.412Z" fill="#00F7EF"/>
<path fill-rule="evenodd" clip-rule="evenodd" d="M751.239 48.604V49.6463C751.239 67.0427 756.378 318.392 1020.16 334.063C1020.16 567.908 1020.16 334.063 1020.16 528.155C1000.36 529.341 846.523 518.198 750.808 432.834L750.52 810.918C752.892 982.114 657.572 1150 479.153 1183.83C422.568 1194.55 364.301 1192.52 308.605 1177.86C-126.661 1047.67 17.9723 402.067 455.035 471.149C455.035 679.618 455.035 471.149 455.035 679.618C274.495 653.057 214.219 803.262 262.059 910.803C305.729 1008.71 485.478 1029.95 548.198 891.826C555.725 861.585 559.349 830.505 558.981 799.344V48.604H751.239Z" fill="black"/>
<path fill-rule="evenodd" clip-rule="evenodd" d="M409.243 466.614C424.618 467.278 439.942 468.814 455.143 471.215C455.143 679.684 455.143 471.215 455.143 679.684C274.603 653.122 214.327 803.328 262.166 910.869C263.065 912.81 263.999 914.787 265.006 916.656C243.682 903.79 226.695 884.838 216.232 862.238C168.32 754.697 228.632 604.491 409.208 631.053C409.28 440.017 409.243 598.992 409.243 466.614ZM974.19 328.486C989.386 331.264 1004.74 333.1 1020.16 333.985C1020.16 567.83 1020.16 333.985 1020.16 528.077C1000.36 529.263 846.522 518.121 750.807 432.756L750.52 810.84C752.892 982.036 657.572 1149.93 479.152 1183.75C422.567 1194.47 364.302 1192.44 308.604 1177.78C233.194 1157.02 166.357 1112.78 117.785 1051.48C160.44 1088.65 211.069 1115.53 265.761 1130.03C320.453 1144.53 377.746 1146.27 433.218 1135.12C611.637 1101.29 706.921 933.405 704.62 762.245L704.872 384.09C800.588 469.454 954.386 480.632 974.442 479.374C974.37 299.228 974.19 487.964 974.19 328.486ZM751.346 48.5981V49.6764C752.841 113.026 772.489 174.615 807.956 227.127C754.73 181.516 719.917 118.098 710.012 48.7059L751.346 48.5981Z" fill="#FF004F"/>
</svg>
