<svg width="1393" height="975" viewBox="0 0 1393 975" fill="none" xmlns="http://www.w3.org/2000/svg">
<path d="M1363.62 152.323C1355.6 122.893 1340.03 96.0679 1318.46 74.4988C1296.9 52.9297 1270.07 37.3633 1240.64 29.3419C1132.27 -0.00155882 696.473 0 696.473 0C696.473 0 260.674 -0.00155882 152.306 29.3419C122.876 37.3633 96.0502 52.9297 74.4811 74.4988C52.912 96.0679 37.3471 122.893 29.3257 152.323C-9.77526 373.808 -9.77526 600.43 29.3257 821.915C37.3471 851.344 52.912 878.172 74.4811 899.741C96.0502 921.31 122.876 936.874 152.306 944.896C260.674 974.239 696.473 974.24 696.473 974.24C696.473 974.24 1132.27 974.239 1240.64 944.896C1270.07 936.874 1296.9 921.31 1318.46 899.741C1340.03 878.172 1355.6 851.344 1363.62 821.915C1383.86 711.49 1393.68 599.411 1392.96 487.15C1393.25 374.887 1383.43 262.825 1363.62 152.323Z" fill="#E70000"/>
<path d="M557.149 696.664L918.814 487.323L557.149 278.578V696.664Z" fill="#FEFEFE"/>
</svg>
