<svg width="1393" height="1225" viewBox="0 0 1393 1225" fill="none" xmlns="http://www.w3.org/2000/svg">
<mask id="mask0_3_66" style="mask-type:luminance" maskUnits="userSpaceOnUse" x="14" y="130" width="1365" height="965">
<path d="M1378.09 130H14V1094.18H1378.09V130Z" fill="white"/>
</mask>
<g mask="url(#mask0_3_66)">
<path d="M1365.78 130C1194.92 129.941 1027.21 175.947 880.289 263.175C737.873 347.968 619.812 468.157 537.577 612.065C537.191 612.789 531.157 623.746 521.841 643.199C459.752 573.049 383.467 516.892 298.039 478.447C212.611 440.002 119.989 420.146 26.3087 420.195H14V695.571H26.3087C128.752 695.635 226.99 736.322 299.478 808.711C371.967 881.1 412.789 979.282 412.994 1081.73V1094.03H688.901L688.611 1081.48C688.611 1081.1 688.611 1080.71 688.611 1080.28C690.679 996.063 706.714 912.777 736.06 833.814C784.853 706.735 871.313 597.6 983.859 521.028C1096.41 444.456 1229.66 404.103 1365.78 405.376H1378.09V130H1365.78ZM38.5691 671.195V444.909C128.485 446.664 217.012 467.434 298.326 505.853C379.64 544.272 451.9 599.47 510.353 667.816C508.068 672.933 505.687 678.371 503.209 684.131C463.945 774.876 436.465 870.276 421.441 968.003C397.153 884.431 347.023 810.698 278.241 757.376C209.459 704.055 125.557 673.886 38.5691 671.195ZM437.611 1069.56C443.459 939.95 473.312 812.55 525.654 693.833L527.682 689.007L533.329 696.343C615.681 803.512 661.374 934.329 663.656 1069.46L437.611 1069.56ZM1353.52 381C1214.44 382.16 1078.94 425.2 964.678 504.509C850.42 583.818 762.711 695.715 712.987 825.609C697.338 868.351 685.246 912.313 676.834 957.046C657.587 856.854 615.208 762.541 553.071 681.621C548.244 675.25 543.417 669.457 539.218 664.003C550.513 639.868 558.526 625.388 558.96 624.277C639.098 484.117 754.112 367.057 892.839 284.462C1032.36 201.556 1191.24 156.794 1353.52 154.666V381Z" fill="white"/>
</g>
</svg>
