<svg width="1266" height="1225" viewBox="0 0 1266 1225" fill="none" xmlns="http://www.w3.org/2000/svg">
<path d="M1172.81 0.0212747H93.1854C81.1394 -0.181044 69.1715 1.99146 57.9666 6.41808C46.7617 10.8447 36.5396 17.438 27.8848 25.8184C19.23 34.1988 12.3124 44.2043 7.52763 55.2604C2.74291 66.3164 0.184865 78.2075 0 90.2529V1134.76C0.184865 1146.8 2.74291 1158.69 7.52763 1169.75C12.3124 1180.8 19.23 1190.81 27.8848 1199.19C36.5396 1207.57 46.7617 1214.16 57.9666 1218.59C69.1715 1223.02 81.1394 1225.19 93.1854 1224.99H1172.81C1184.86 1225.19 1196.83 1223.02 1208.03 1218.59C1219.24 1214.16 1229.46 1207.57 1238.12 1199.19C1246.77 1190.81 1253.69 1180.8 1258.47 1169.75C1263.26 1158.69 1265.82 1146.8 1266 1134.76V90.2529C1265.87 78.1904 1263.35 66.273 1258.59 55.1904C1253.82 44.1079 1246.91 34.0803 1238.24 25.6885C1229.58 17.2967 1219.33 10.7071 1208.1 6.30148C1196.87 1.89581 1184.88 -0.239285 1172.81 0.0212747ZM377.272 1044.53H187.135V459.309H377.272V1044.53ZM281.849 378.029C261.058 377.311 240.939 370.491 223.999 358.416C207.06 346.341 194.05 329.548 186.592 310.13C179.133 290.711 177.556 269.526 182.057 249.217C186.558 228.908 196.938 210.373 211.903 195.924C226.868 181.474 245.755 171.749 266.21 167.961C286.665 164.173 307.783 166.489 326.931 174.621C346.078 182.753 362.408 196.342 373.884 213.691C385.36 231.041 391.475 251.387 391.466 272.189C391.43 286.412 388.537 300.481 382.957 313.565C377.378 326.648 369.226 338.478 358.987 348.351C348.747 358.223 336.628 365.938 323.348 371.036C310.069 376.135 295.901 378.512 281.685 378.029H281.849ZM1079.63 1045.29H889.492V725.469C889.492 630.763 847.73 601.725 794.778 601.725C778.896 601.849 763.218 605.306 748.757 611.873C734.297 618.439 721.376 627.97 710.832 639.846C700.288 651.721 692.355 665.676 687.547 680.812C682.74 695.947 681.164 711.925 682.923 727.708V1045.29H492.785V460.019H676.208V541.298H678.446C697.718 510.832 724.511 485.842 756.246 468.738C787.98 451.633 823.586 442.992 859.631 443.643C966.246 443.643 1081.1 504.778 1081.1 683.82V1045.4L1079.63 1045.29Z" fill="white"/>
</svg>
