<svg width="1167" height="1225" viewBox="0 0 1167 1225" fill="none" xmlns="http://www.w3.org/2000/svg">
<path d="M1162.58 272.162C1150.32 206.128 1117.26 145.747 1068.23 99.8422C1019.21 53.9375 956.789 24.9152 890.095 17.0164C785.308 4.20056 679.736 -1.0599 574.195 1.27577H572.694C481.858 -2.68675 390.855 2.5872 301.085 17.0164C166.928 36.5275 44.3386 129.654 14.652 262.717C1.77322 330.163 -2.6413 398.953 1.51081 467.492C5.1713 562.998 5.97653 658.43 14.8715 753.643C20.9573 816.878 31.6129 879.59 46.7545 941.286C75.0501 1055.31 189.514 1150.23 301.525 1188.89C421.629 1229.25 550.496 1235.92 674.126 1208.18C687.78 1205.11 701.214 1201.41 714.392 1197.2C746.529 1189.07 777.257 1176.13 805.538 1158.84C805.88 1158.55 806.176 1158.22 806.416 1157.85C806.616 1157.45 806.716 1157.01 806.709 1156.57V1064.47C806.708 1064.05 806.607 1063.63 806.416 1063.26C806.258 1062.88 805.973 1062.57 805.611 1062.38C805.3 1062.11 804.92 1061.93 804.513 1061.87H803.305C724.057 1080.51 642.903 1089.83 561.493 1089.65C421.369 1089.65 383.629 1024.2 372.868 996.927C364.22 973.344 358.695 948.732 356.432 923.715C356.394 923.295 356.465 922.872 356.638 922.487C356.811 922.102 357.081 921.769 357.42 921.519C357.706 921.211 358.1 921.028 358.518 921.006H359.8C437.757 939.506 517.609 948.831 597.732 948.79C617.059 948.79 636.167 948.79 655.494 948.278C737.566 947.639 819.456 940.442 900.381 926.753C902.358 926.351 904.371 926.058 906.055 925.545C1031.13 901.934 1150.17 827.734 1162.29 639.798C1162.8 632.476 1163.9 562.302 1163.9 554.652C1168.4 460.446 1168 366.069 1162.69 271.905L1162.58 272.162ZM970.077 741.087H838.519V424.077C838.519 357.344 810.223 323.3 752.753 323.3C695.284 323.3 657.947 363.567 657.947 443.112V616.626H527.194V443.112C527.194 363.531 495.531 323.3 432.277 323.3C369.024 323.3 346.622 357.381 346.512 424.077V741.087H215.064V414.413C211.982 356.772 230.517 300.055 267.043 255.359C286.34 235.226 309.775 219.519 335.732 209.323C361.689 199.128 389.549 194.686 417.39 196.304C445.23 197.922 472.388 205.562 496.989 218.697C521.589 231.831 543.048 250.147 559.882 272.381L592.827 326.449L625.771 272.381C642.602 250.142 664.058 231.821 688.659 218.683C713.261 205.545 740.42 197.902 768.262 196.284C796.105 194.666 823.967 199.11 849.924 209.309C875.882 219.508 899.317 235.22 918.61 255.359C955.136 300.055 973.671 356.772 970.589 414.413V741.087H970.077Z" fill="white"/>
</svg>
