<svg width="1216" height="1217" viewBox="0 0 1216 1217" fill="none" xmlns="http://www.w3.org/2000/svg">
<path d="M8.65037 711C13.305 737.662 19.4813 764.035 27.1494 789.992C27.8789 792.858 29.2859 795.671 30.0155 797.807C37.8547 820.838 46.8822 843.447 57.0611 865.544C59.9272 871.953 62.7413 877.633 65.6073 884.043C77.697 906.813 90.5162 929.583 104.742 950.946C107.608 955.219 110.422 958.762 113.289 963.035C126.108 980.803 140.334 997.893 154.56 1014.25C159.771 1019.47 163.836 1024.68 168.786 1029.89C186.231 1048.07 204.765 1065.17 224.284 1081.11C229.495 1084.65 234.237 1088.25 239.24 1092.52C256.067 1105.43 273.66 1117.32 291.923 1128.11L309.016 1138.53C331.078 1150.86 353.896 1161.79 377.332 1171.25L383.742 1173.39C375.572 1115.73 376.292 1057.16 385.879 999.718C396.301 952.041 457.062 697.504 457.062 697.504C444.911 668.934 438.859 638.142 439.292 607.1C439.292 522.427 488.38 459.067 549.61 459.067C560.493 458.907 571.283 461.078 581.257 465.432C591.231 469.786 600.158 476.224 607.439 484.313C614.719 492.402 620.184 501.956 623.467 512.332C626.75 522.707 627.775 533.664 626.473 544.469C615.661 613.447 598.745 681.33 575.926 747.317C572.561 760.762 572.389 774.807 575.422 788.33C578.456 801.853 584.612 814.48 593.398 825.199C602.184 835.918 613.355 844.434 626.021 850.064C638.686 855.695 652.493 858.284 666.337 857.625C774.519 857.625 857.792 743.774 857.792 579.38C858.901 546.009 853.036 512.773 840.573 481.796C828.11 450.819 809.322 422.782 785.41 399.476C761.499 376.169 732.988 358.106 701.701 346.44C670.413 334.773 637.036 329.759 603.701 331.72C568.11 330.168 532.575 335.857 499.247 348.439C465.919 361.02 435.491 380.234 409.807 404.917C384.122 429.601 363.715 459.241 349.82 492.041C335.926 524.842 328.835 560.12 328.974 595.741C329.09 645.533 344.757 694.044 373.789 734.499C375.966 736.845 377.502 739.711 378.251 742.823C378.999 745.935 378.934 749.188 378.062 752.267C373.789 771.494 363.107 812.761 360.97 821.306C358.104 831.728 351.694 834.855 340.126 829.124C263.992 793.535 216.259 683.227 216.259 593.553C216.259 402.116 355.759 225.633 618.396 225.633C829.079 225.633 993.592 375.801 993.592 577.191C993.592 787.125 861.231 955.793 678.271 955.793C651.038 956.759 623.998 950.877 599.626 938.688C575.255 926.499 554.331 908.391 538.771 886.022C538.771 886.022 508.182 1002.01 501.043 1030.51C483.24 1086.48 458.114 1139.85 426.316 1189.23C441.95 1194.44 458.365 1197.77 474.727 1202.04C479 1202.77 483.273 1204.18 487.547 1204.91C503.909 1208.45 521.001 1210.59 538.771 1212.73L563.68 1214.86C577.906 1215.59 592.132 1217 607.088 1217C768.485 1217.1 923.31 1153.08 1037.5 1039.03C1151.7 924.988 1215.9 770.253 1216 608.871C1216.1 447.489 1152.08 292.678 1038.02 178.495C923.963 64.3121 769.214 0.110609 607.817 0.0138736C587.145 -0.12869 566.481 0.827553 545.911 2.87932C396.207 18.3339 257.545 88.7236 156.718 200.445C55.8906 312.167 0.0550356 457.291 0 607.777C0.340195 636.108 2.4811 664.389 6.40966 692.449C6.48899 698.695 7.24019 704.915 8.65037 711Z" fill="white"/>
</svg>
