<svg width="1048" height="1213" viewBox="0 0 1048 1213" fill="none" xmlns="http://www.w3.org/2000/svg">
<mask id="mask0_4_271" style="mask-type:luminance" maskUnits="userSpaceOnUse" x="0" y="0" width="1048" height="1213">
<path d="M1047.64 0H0V1212.46H1047.64V0Z" fill="white"/>
</mask>
<g mask="url(#mask0_4_271)">
<path d="M796.804 670.906C790.569 720.282 774.681 767.947 750.044 811.189C732.867 839.304 709.945 863.475 682.78 882.119C655.615 900.763 624.819 913.459 592.408 919.378C555.398 928.402 516.871 929.283 479.488 921.96C442.104 914.637 406.757 899.285 375.888 876.965C348.256 856.163 326.741 828.3 313.605 796.306C300.469 764.312 296.198 729.369 301.24 695.153C307.29 655.92 324.923 619.388 351.875 590.244C378.828 561.1 413.873 540.671 452.514 531.579C507.692 514.502 565.96 509.819 623.157 517.865C644.364 520.375 665.889 520.127 689.181 521.4C688.302 497.739 681.391 474.696 669.105 454.457C657.764 434.813 641.294 418.624 621.458 407.622C601.622 396.621 579.167 391.222 556.498 392.004C522.657 386.309 487.884 391.249 456.968 406.141C439.251 417.384 422.677 430.334 407.486 444.808C399.992 451.877 395.999 453.256 387.834 447.494C363.093 430.14 338.14 413.387 312.303 395.785C331.576 365.969 357.082 340.684 387.066 321.671C417.049 302.658 450.797 290.37 485.985 285.652C545.822 275.477 607.333 283.314 662.708 308.167C713.986 331.875 753.886 374.797 773.795 427.666C788.985 464.062 797.636 502.852 799.349 542.253C799.597 548.756 808.185 557.451 815.042 560.809C852.047 577.797 885.829 601.068 914.89 629.589C955.961 672.018 983.25 725.869 993.178 784.079C1006.58 855.531 995.047 929.415 960.52 993.389C930.114 1048.36 887.07 1095.3 834.941 1130.35C781.631 1169.4 719.373 1194.45 653.872 1203.19C591.051 1212.19 527.459 1214.56 464.143 1210.26C367.541 1203.89 275.08 1168.65 198.741 1109.11C157.158 1075.79 121.921 1035.25 94.7227 989.43C58.7117 929.991 33.3207 864.738 19.6865 796.591C13.6939 766.228 9.4456 735.545 6.96248 704.696C2.29718 664.361 0.0429118 623.785 0.2117 583.182C-0.0831124 470.442 25.0963 359.092 73.8695 257.447C103.109 197.621 145.31 145.06 197.405 103.584C249.501 62.1083 310.182 32.7596 375.039 17.6709C441.545 2.2189 509.96 -3.37816 578.093 1.05897C660.479 3.5721 741.157 25.1813 813.77 64.1841C877.718 99.0216 932.147 149.009 972.289 209.768C1004.32 258.808 1029.15 312.192 1046.02 368.288C1049.55 379.668 1047.61 381.93 1037.15 384.617C1009.83 391.686 982.999 400.522 955.642 407.449C952.391 408.262 945.039 402.466 943.342 398.224C932.103 370.479 924.327 341.072 910.932 314.493C886.633 264.258 850.836 220.458 806.443 186.646C762.05 152.834 710.312 129.963 655.427 119.887C604.597 108.51 552.464 104.051 500.441 106.633C413.334 108.019 328.954 137.235 259.64 190.01C210.689 230.959 173.203 283.911 150.85 343.688C131.691 390.967 118.994 440.614 113.102 491.286C106.439 543.763 104.075 596.697 106.033 649.558C108.265 741.757 131.217 832.272 173.187 914.394C201.597 968.741 244.215 1014.36 296.504 1046.41C349.856 1078 409.621 1097.2 471.388 1102.6C551.414 1113.68 632.936 1104.9 708.761 1077.01C747.895 1064.06 783.63 1042.5 813.343 1013.93C843.055 985.35 865.991 950.483 880.465 911.885C895.424 876.095 899.02 836.57 890.763 798.669C882.506 760.767 862.796 726.319 834.305 699.995C822.295 689.623 809.767 679.867 796.769 670.765M694.836 628.104C643.091 626.514 595.553 624.57 547.98 623.686C511.343 622.141 475.124 631.955 444.279 651.785C433.014 658.612 423.54 668.029 416.646 679.254C409.752 690.478 405.636 703.186 404.64 716.321C403.645 729.456 405.799 742.639 410.922 754.774C416.046 766.91 423.992 777.647 434.1 786.094C451.556 799.333 471.533 808.864 492.806 814.103C514.079 819.342 536.198 820.179 557.805 816.561C574.658 815.219 591.09 810.621 606.192 803.024C676.669 767.68 686 700.737 695.012 628.034" fill="white"/>
</g>
</svg>
