<svg width="1010" height="1184" viewBox="0 0 1010 1184" fill="none" xmlns="http://www.w3.org/2000/svg">
<path fill-rule="evenodd" clip-rule="evenodd" d="M731.255 0V1.08038C731.255 19.112 736.582 279.64 1010 295.883C1010 538.267 1010 295.883 1010 497.063C989.472 498.292 830.019 486.743 730.808 398.261L730.509 790.152C732.968 967.6 634.167 1141.62 449.231 1176.68C390.579 1187.8 330.184 1185.68 272.453 1170.49C-178.711 1035.55 -28.7946 366.37 424.232 437.975C424.232 654.057 424.232 437.976 424.232 654.057C237.098 626.526 174.62 782.216 224.207 893.685C269.473 995.169 455.787 1017.19 520.798 874.014C528.6 842.669 532.356 810.454 531.975 778.156V0H731.255Z" fill="white"/>
</svg>
