<svg width="913" height="791" viewBox="0 0 913 791" fill="none" xmlns="http://www.w3.org/2000/svg">
<mask id="mask0_4_308" style="mask-type:luminance" maskUnits="userSpaceOnUse" x="0" y="0" width="913" height="791">
<path d="M912.374 0H0V790.731H912.374V0Z" fill="white"/>
</mask>
<g mask="url(#mask0_4_308)">
<path d="M911.954 182.944C907.892 271.917 845.862 393.753 725.865 548.45C601.841 710.01 496.901 790.773 411.044 790.738C357.89 790.738 312.913 741.541 276.112 643.148L202.58 372.603C175.269 274.246 145.978 225.049 114.71 225.014C88.7797 235.652 64.5807 250.097 42.9111 267.873L0 212.671C45.0296 173.034 89.4113 133.379 133.145 93.7073C170.102 54.8007 216.773 26.4614 268.339 11.6141C339.35 4.78614 383.049 53.4398 399.436 157.575C417.154 269.904 429.409 339.742 436.202 367.089C456.651 460.264 479.183 506.834 503.799 506.799C522.882 506.799 551.56 476.581 589.831 416.145C619.918 375.021 640.87 327.942 651.283 278.062C656.745 225.89 636.261 199.786 589.831 199.751C566.53 200.075 543.543 205.169 522.287 214.72C567.211 67.5509 652.911 -4.02018 779.386 0.00656796C873.122 2.77277 917.311 63.6992 911.954 182.786" fill="white"/>
</g>
</svg>
