<svg width="1393" height="975" viewBox="0 0 1393 975" fill="none" xmlns="http://www.w3.org/2000/svg">
<path d="M1363.67 152.442C1355.65 122.989 1340.09 96.1429 1318.52 74.5569C1296.95 52.971 1270.12 37.3925 1240.69 29.3648C1132.32 -0.00156004 696.5 0 696.5 0C696.5 0 260.684 -0.00156004 152.312 29.3648C122.881 37.3925 96.054 52.971 74.4841 74.5569C52.9142 96.1429 37.3485 122.989 29.3269 152.442C-9.77563 374.1 -9.77563 600.898 29.3269 822.556C37.3485 852.009 52.9142 878.857 74.4841 900.443C96.054 922.029 122.881 937.606 152.312 945.633C260.684 975 696.5 975 696.5 975C696.5 975 1132.32 975 1240.69 945.633C1270.12 937.606 1296.95 922.029 1318.52 900.443C1340.09 878.857 1355.65 852.009 1363.67 822.556C1402.78 600.898 1402.78 374.1 1363.67 152.442ZM557.173 697.033V278.801L918.851 487.709L557.173 697.033Z" fill="white"/>
</svg>
