<svg xmlns="http://www.w3.org/2000/svg" xmlns:xlink="http://www.w3.org/1999/xlink" width="60" height="60" viewBox="0 0 60 60">
  <defs>
    <clipPath id="clip-path">
      <rect id="Rectangle_1825" data-name="Rectangle 1825" width="60" height="60" transform="translate(320 574)" fill="#fff" stroke="#707070" stroke-width="1"/>
    </clipPath>
  </defs>
  <g id="GB_Agendas_and_Minutes" data-name="GB Agendas and Minutes" transform="translate(-320 -574)" clip-path="url(#clip-path)">
    <g id="Group_10032" data-name="Group 10032" transform="translate(324 578)">
      <line id="Line_5" data-name="Line 5" x2="3.333" transform="translate(21 21)" fill="none" stroke="#fff" stroke-linecap="round" stroke-linejoin="round" stroke-width="2"/>
      <line id="Line_6" data-name="Line 6" x2="3.333" transform="translate(31 21)" fill="none" stroke="#fff" stroke-linecap="round" stroke-linejoin="round" stroke-width="2"/>
      <line id="Line_7" data-name="Line 7" x2="3.333" transform="translate(21 27.667)" fill="none" stroke="#fff" stroke-linecap="round" stroke-linejoin="round" stroke-width="2"/>
      <line id="Line_8" data-name="Line 8" x2="3.333" transform="translate(11 27.667)" fill="none" stroke="#fff" stroke-linecap="round" stroke-linejoin="round" stroke-width="2"/>
      <line id="Line_9" data-name="Line 9" x2="3.333" transform="translate(31 27.667)" fill="none" stroke="#fff" stroke-linecap="round" stroke-linejoin="round" stroke-width="2"/>
      <line id="Line_10" data-name="Line 10" x2="3.333" transform="translate(21 34.333)" fill="none" stroke="#fff" stroke-linecap="round" stroke-linejoin="round" stroke-width="2"/>
      <line id="Line_11" data-name="Line 11" x2="3.333" transform="translate(11 34.333)" fill="none" stroke="#fff" stroke-linecap="round" stroke-linejoin="round" stroke-width="2"/>
      <g id="Group_10031" data-name="Group 10031" transform="translate(1 1)">
        <line id="Line_12" data-name="Line 12" x2="20" transform="translate(30 50)" fill="none" stroke="#fff" stroke-linecap="round" stroke-linejoin="round" stroke-width="2"/>
        <line id="Line_13" data-name="Line 13" x2="20" transform="translate(30 26.667)" fill="none" stroke="#fff" stroke-linecap="round" stroke-linejoin="round" stroke-width="2"/>
        <path id="Path_6699" data-name="Path 6699" d="M66.942,62.862V56.2l-3.333-3.333V49.529L66.942,46.2V39.529" transform="translate(-20.275 -12.862)" fill="none" stroke="#fff" stroke-linecap="round" stroke-linejoin="round" stroke-width="2"/>
        <path id="Path_6700" data-name="Path 6700" d="M49.161,62.862V56.2l3.333-3.333V49.529L49.161,46.2V39.529" transform="translate(-15.827 -12.862)" fill="none" stroke="#fff" stroke-linecap="round" stroke-linejoin="round" stroke-width="2"/>
        <line id="Line_14" data-name="Line 14" x2="43.334" transform="translate(0 13.333)" fill="none" stroke="#fff" stroke-linecap="round" stroke-linejoin="round" stroke-width="2"/>
        <line id="Line_15" data-name="Line 15" y2="6.667" transform="translate(10)" fill="none" stroke="#fff" stroke-linecap="round" stroke-linejoin="round" stroke-width="2"/>
        <line id="Line_16" data-name="Line 16" y2="6.667" transform="translate(33.333)" fill="none" stroke="#fff" stroke-linecap="round" stroke-linejoin="round" stroke-width="2"/>
        <path id="Path_6701" data-name="Path 6701" d="M44.334,22.483V9.149A3.333,3.333,0,0,0,41,5.816H4.333A3.333,3.333,0,0,0,1,9.149v30a3.333,3.333,0,0,0,3.333,3.333H27.667" transform="translate(-1 -2.483)" fill="none" stroke="#fff" stroke-linecap="round" stroke-linejoin="round" stroke-width="2"/>
      </g>
    </g>
  </g>
</svg>
