<svg xmlns="http://www.w3.org/2000/svg" xmlns:xlink="http://www.w3.org/1999/xlink" width="50" height="50" viewBox="0 0 50 50">
  <defs>
    <clipPath id="clip-path">
      <rect id="Rectangle_854" data-name="Rectangle 854" width="50" height="50" transform="translate(861 2407)" fill="#fff" stroke="#707070" stroke-width="1"/>
    </clipPath>
  </defs>
  <g id="Graphic_Buttons_Agendas_and_Minutes" data-name="Graphic Buttons Agendas and Minutes" transform="translate(-861 -2407)" clip-path="url(#clip-path)">
    <path id="Path_3455" data-name="Path 3455" d="M82.366,426.854l7.587-7.587-2.384-2.384-7.587,7.587Zm-5.756-3.372,3.372,3.372,2.384-2.384L78.994,421.1ZM74.43,405.43H77.8v-6.744H74.43Zm13.488,0H91.29v-6.744H87.918Zm10.116,5.058H67.686v3.372H98.034Zm-28.352-9.381a6.729,6.729,0,0,0-2.947,2.947l3,1.531a3.382,3.382,0,0,1,1.474-1.474Zm-.31,9.044c0-1.445,0-2.426.064-3.185a3.6,3.6,0,0,1,.3-1.381l-3-1.531a6.9,6.9,0,0,0-.661,2.637c-.076.929-.074,2.07-.074,3.46Zm6.407-9.779c-1.389,0-2.531,0-3.46.074a6.9,6.9,0,0,0-2.637.661l1.531,3a3.606,3.606,0,0,1,1.381-.3c.759-.062,1.74-.064,3.185-.064Zm18.728,3.739a3.382,3.382,0,0,1,1.474,1.474l3-1.531a6.729,6.729,0,0,0-2.947-2.947Zm5.213,6.039c0-1.389,0-2.531-.074-3.46a6.9,6.9,0,0,0-.661-2.637l-3,1.531a3.6,3.6,0,0,1,.3,1.381c.062.759.064,1.74.064,3.185Zm-9.779-6.407c1.445,0,2.426,0,3.185.064a3.606,3.606,0,0,1,1.381.3l1.531-3a6.9,6.9,0,0,0-2.637-.661c-.929-.076-2.07-.074-3.46-.074Zm6.039,25.135a3.382,3.382,0,0,1-1.474,1.474l1.531,3a6.729,6.729,0,0,0,2.947-2.947Zm-6.039,5.213c1.389,0,2.531,0,3.46-.074a6.9,6.9,0,0,0,2.637-.661l-1.531-3a3.606,3.606,0,0,1-1.381.3c-.759.062-1.74.064-3.185.064Zm6.407-9.779c0,1.445,0,2.426-.064,3.185a3.605,3.605,0,0,1-.3,1.381l3,1.531a6.9,6.9,0,0,0,.661-2.637c.076-.929.074-2.07.074-3.46Zm-25.135,6.039a3.382,3.382,0,0,1-1.474-1.474l-3,1.531a6.729,6.729,0,0,0,2.947,2.947ZM66,424.313c0,1.389,0,2.531.074,3.46a6.9,6.9,0,0,0,.661,2.637l3-1.531a3.605,3.605,0,0,1-.3-1.381c-.062-.759-.064-1.74-.064-3.185Zm9.779,6.407c-1.445,0-2.426,0-3.185-.064a3.606,3.606,0,0,1-1.381-.3l-1.531,3a6.9,6.9,0,0,0,2.637.661c.929.076,2.07.074,3.46.074Zm-6.407-20.569H66v14.162h3.372ZM89.941,430.72H75.779v3.372H89.941Zm6.407-6.407H99.72V410.151H96.348ZM75.779,403.744H89.941v-3.372H75.779Zm14.174,15.523a1.686,1.686,0,0,0-2.384-2.384Zm-8.779,6.4-1.192,1.192a1.684,1.684,0,0,0,2.384,0Zm-2.18-4.564a1.686,1.686,0,0,0-2.384,2.384ZM74.43,405.43a1.686,1.686,0,1,0,3.372,0Zm3.372-6.744a1.686,1.686,0,1,0-3.372,0Zm10.116,6.744a1.686,1.686,0,1,0,3.372,0Zm3.372-6.744a1.686,1.686,0,1,0-3.372,0Zm-23.6,11.8a1.686,1.686,0,1,0,0,3.372Zm30.348,3.372a1.686,1.686,0,1,0,0-3.372Zm-29.8-9.04-1.5-.765Zm2.21-2.21-.765-1.5Zm27.035,2.21,1.5-.765Zm-2.21-2.21.765-1.5Zm0,29.245.765,1.5Zm2.21-2.21,1.5.766Zm-29.246,0-1.5.766Zm2.21,2.21-.765,1.5Z" transform="translate(802.953 2016.454)" fill="#fff"/>
  </g>
</svg>
