<svg xmlns="http://www.w3.org/2000/svg" xmlns:xlink="http://www.w3.org/1999/xlink" width="92" height="92" viewBox="0 0 92 92">
  <defs>
    <clipPath id="clip-path">
      <rect id="Rectangle_1851" data-name="Rectangle 1851" width="92" height="92" transform="translate(-1182 2087)" fill="none" stroke="#707070" stroke-width="1"/>
    </clipPath>
  </defs>
  <g id="Graphic_Buttons_Agendas_and_Minutes" data-name="Graphic Buttons Agendas and Minutes" transform="translate(1182 -2087)" clip-path="url(#clip-path)">
    <g id="vuesax_outline_calendar-tick" data-name="vuesax/outline/calendar-tick" transform="translate(-1170 2099)">
      <g id="calendar-tick">
        <path id="Vector" d="M2.1,12.572a2.111,2.111,0,0,1-2.1-2.1V2.1A2.111,2.111,0,0,1,2.1,0a2.111,2.111,0,0,1,2.1,2.1v8.381A2.111,2.111,0,0,1,2.1,12.572Z" transform="translate(20.254 3.492)" fill="#3b656d"/>
        <path id="Vector-2" data-name="Vector" d="M2.1,12.572a2.111,2.111,0,0,1-2.1-2.1V2.1A2.111,2.111,0,0,1,2.1,0a2.111,2.111,0,0,1,2.1,2.1v8.381A2.111,2.111,0,0,1,2.1,12.572Z" transform="translate(42.604 3.492)" fill="#3b656d"/>
        <path id="Vector-3" data-name="Vector" d="M2.794,5.552A2.938,2.938,0,0,1,.81,4.742,2.885,2.885,0,0,1,0,2.759,2.781,2.781,0,0,1,.224,1.7,3.226,3.226,0,0,1,.81.775a2.925,2.925,0,0,1,3.967,0,2.938,2.938,0,0,1,.81,1.984,4.2,4.2,0,0,1-.056.559,1.776,1.776,0,0,1-.168.5,2.115,2.115,0,0,1-.251.5l-.335.419A2.938,2.938,0,0,1,2.794,5.552Z" transform="translate(20.953 34.956)" fill="#3b656d"/>
        <path id="Vector-4" data-name="Vector" d="M2.794,5.572a2.781,2.781,0,0,1-1.062-.223A2.884,2.884,0,0,1,.81,4.762,2.885,2.885,0,0,1,0,2.778,2.781,2.781,0,0,1,.224,1.717,3.226,3.226,0,0,1,.81.795,2.884,2.884,0,0,1,1.732.208,2.842,2.842,0,0,1,4.777.795a2.938,2.938,0,0,1,.81,1.984,4.2,4.2,0,0,1-.056.559,1.776,1.776,0,0,1-.168.5,2.115,2.115,0,0,1-.251.5,4.4,4.4,0,0,1-.335.419A2.938,2.938,0,0,1,2.794,5.572Z" transform="translate(30.731 34.937)" fill="#3b656d"/>
        <path id="Vector-5" data-name="Vector" d="M2.794,5.584a2.781,2.781,0,0,1-1.062-.223A2.608,2.608,0,0,1,.81,4.774a2.608,2.608,0,0,1-.587-.922A2.781,2.781,0,0,1,0,2.79,2.781,2.781,0,0,1,.224,1.729,2.608,2.608,0,0,1,.81.807,2.608,2.608,0,0,1,1.732.22a2.671,2.671,0,0,1,2.123,0,2.608,2.608,0,0,1,.922.587,2.608,2.608,0,0,1,.587.922A2.781,2.781,0,0,1,5.587,2.79a2.781,2.781,0,0,1-.224,1.062A2.519,2.519,0,0,1,3.855,5.361,2.781,2.781,0,0,1,2.794,5.584Z" transform="translate(20.953 44.703)" fill="#3b656d"/>
        <path id="Vector-6" data-name="Vector" d="M49.589,4.191H2.1A2.111,2.111,0,0,1,0,2.1,2.111,2.111,0,0,1,2.1,0H49.589a2.111,2.111,0,0,1,2.1,2.1A2.111,2.111,0,0,1,49.589,4.191Z" transform="translate(7.683 23.3)" fill="#3b656d"/>
        <path id="Vector-7" data-name="Vector" d="M13.27,26.54a12.965,12.965,0,0,1-8.744-3.325A12.032,12.032,0,0,1,1.9,20.087,13.116,13.116,0,0,1,0,13.27a13.27,13.27,0,0,1,26.54,0,13.053,13.053,0,0,1-1.928,6.845A13.225,13.225,0,0,1,13.27,26.54Zm0-22.35a9.1,9.1,0,0,0-9.08,9.08A8.852,8.852,0,0,0,5.5,17.936a8.207,8.207,0,0,0,1.76,2.123A8.865,8.865,0,0,0,13.27,22.35a9.093,9.093,0,0,0,9.08-9.08,9.28,9.28,0,0,0-2.263-6.006A9.115,9.115,0,0,0,13.27,4.191Z" transform="translate(37.017 39.811)" fill="#3b656d"/>
        <path id="Vector-8" data-name="Vector" d="M4.854,9.689a2.072,2.072,0,0,1-1.481-.615L.608,6.308A2.094,2.094,0,0,1,3.569,3.347L4.91,4.688,9.38.553a2.1,2.1,0,0,1,2.85,3.073L6.279,9.13A2.185,2.185,0,0,1,4.854,9.689Z" transform="translate(43.84 48.253)" fill="#3b656d"/>
        <path id="Vector-9" data-name="Vector" d="M36.654,55.874H16.064C5.867,55.874,0,50.008,0,39.811V16.064C0,5.867,5.867,0,16.064,0h22.35c10.2,0,16.064,5.867,16.064,16.064V38.023a2.1,2.1,0,0,1-3.688,1.369,9.085,9.085,0,0,0-15.9,6.006,8.852,8.852,0,0,0,1.313,4.666,8.207,8.207,0,0,0,1.76,2.123,2.077,2.077,0,0,1,.615,2.319A2,2,0,0,1,36.654,55.874ZM16.064,4.191c-7.99,0-11.873,3.883-11.873,11.873V39.811c0,7.99,3.883,11.873,11.873,11.873H32.323A13.128,13.128,0,0,1,30.731,45.4,13.256,13.256,0,0,1,50.287,33.72V16.064c0-7.99-3.883-11.873-11.873-11.873Z" transform="translate(6.286 7.683)" fill="#3b656d"/>
        <path id="Vector-10" data-name="Vector" d="M0,0H67.049V67.049H0Z" fill="none" opacity="0"/>
      </g>
    </g>
  </g>
</svg>
