<svg width="1365" height="965" viewBox="0 0 1365 965" fill="none" xmlns="http://www.w3.org/2000/svg">
<mask id="mask0_4_158" style="mask-type:luminance" maskUnits="userSpaceOnUse" x="0" y="0" width="1365" height="965">
<path d="M1364.09 0H0V964.179H1364.09V0Z" fill="white"/>
</mask>
<g mask="url(#mask0_4_158)">
<path d="M1351.78 5.69328e-05C1180.92 -0.0590763 1013.21 45.9469 866.289 133.175C723.873 217.968 605.812 338.157 523.577 482.065C523.191 482.789 517.157 493.746 507.841 513.199C445.752 443.049 369.467 386.892 284.039 348.447C198.611 310.002 105.989 290.146 12.3087 290.195H0V565.571H12.3087C114.752 565.635 212.99 606.322 285.478 678.711C357.967 751.1 398.789 849.282 398.994 951.725V964.034H674.901L674.611 951.484C674.611 951.098 674.611 950.712 674.611 950.277C676.679 866.063 692.714 782.777 722.06 703.814C770.853 576.735 857.313 467.6 969.859 391.028C1082.41 314.456 1215.66 274.103 1351.78 275.376H1364.09V5.69328e-05H1351.78ZM24.5691 541.195V314.909C114.485 316.664 203.012 337.434 284.326 375.853C365.64 414.272 437.9 469.47 496.353 537.816C494.068 542.933 491.687 548.371 489.209 554.131C449.945 644.876 422.465 740.276 407.441 838.003C383.153 754.431 333.023 680.698 264.241 627.376C195.459 574.055 111.557 543.886 24.5691 541.195ZM423.611 939.562C429.459 809.95 459.312 682.55 511.654 563.833L513.682 559.007L519.329 566.343C601.681 673.512 647.374 804.329 649.656 939.465L423.611 939.562ZM1339.52 251C1200.44 252.16 1064.94 295.2 950.678 374.509C836.42 453.818 748.711 565.715 698.987 695.609C683.338 738.351 671.246 782.313 662.834 827.046C643.587 726.854 601.208 632.541 539.071 551.621C534.244 545.25 529.417 539.457 525.218 534.003C536.513 509.868 544.526 495.388 544.96 494.277C625.098 354.117 740.112 237.057 878.839 154.462C1018.36 71.5562 1177.24 26.7944 1339.52 24.6657V251Z" fill="black"/>
</g>
</svg>
