<svg width="1377" height="432" viewBox="0 0 1377 432" fill="none" xmlns="http://www.w3.org/2000/svg">
<path d="M711.268 430.34L695.359 429.203C664.273 427.261 634.238 417.209 608.245 400.046C593.009 389.877 580.008 376.704 570.043 361.333C560.077 345.963 553.355 328.719 550.289 310.659C544.322 280.654 546.817 249.581 557.495 220.912C563.987 203.946 573.794 188.443 586.343 175.308C598.892 162.174 613.932 151.671 630.585 144.414C651.639 134.949 674.212 129.317 697.244 127.783C720.108 125.741 743.152 127.531 765.427 133.077C774.13 135.35 782.473 139.148 790.816 142.169C791.591 142.418 792.249 142.941 792.668 143.64C793.086 144.338 793.235 145.165 793.088 145.966C791.564 161.127 790.068 176.649 788.543 191.782C787.795 199.349 787.019 206.943 786.271 214.87C786.292 215.52 786.159 216.166 785.882 216.755C784.912 216.336 783.984 215.826 783.11 215.231C760.517 201.928 733.795 197.474 708.109 202.73C694.131 205.017 681.217 211.614 671.17 221.596C661.122 231.579 654.443 244.45 652.065 258.413C647.491 275.485 648.689 293.591 655.474 309.911C660.369 321.047 667.826 330.869 677.238 338.576C686.65 346.283 697.75 351.656 709.633 354.258C725.585 357.795 742.103 357.928 758.11 354.646C770.371 352.708 782.255 348.874 793.338 343.282C793.338 345.167 793.726 347.079 793.726 348.575C794.474 370.915 794.862 393.255 795.61 415.623C795.61 417.507 795.222 417.896 793.338 418.644C773.885 424.682 753.81 428.495 733.497 430.008L717.588 431.144C715.538 430.537 713.404 430.266 711.268 430.34Z" fill="black"/>
<path d="M1128.99 133.794L1029.01 266.835C1065.05 319.109 1101.08 370.994 1137.33 423.628H1019.92C1019.09 423.648 1018.27 423.448 1017.54 423.049C1016.81 422.65 1016.2 422.066 1015.76 421.356C990.376 375.152 964.628 328.948 938.879 283.104C938.388 282.094 937.753 281.161 936.993 280.333C936.605 280.333 936.606 280.332 936.246 280.72V423.878H837.019V7.29443H936.246V255.748C936.634 255.748 936.633 256.136 936.993 256.136C937.742 255.387 938.518 255 938.879 254.251C955.509 229.999 971.833 205.775 988.491 181.523C998.719 166.361 1008.95 151.616 1019.17 136.455C1019.47 135.792 1019.95 135.226 1020.55 134.823C1021.15 134.421 1021.86 134.199 1022.58 134.182H1127.49C1127.85 133.794 1128.24 133.794 1128.99 133.794Z" fill="black"/>
<path d="M157.93 133.797H228.386V203.865H157.93V423.521H58.7037V204.225H0V134.158H60.2287V130.749C60.6168 116.724 60.6166 102.726 62.1133 88.7016C63.3948 69.7269 69.9509 51.4877 81.0434 36.0398C92.8248 21.1766 109.216 10.6559 127.635 6.13397C145.967 1.64573 164.812 -0.396023 183.679 0.0633114C198.968 0.328608 214.194 2.1021 229.135 5.35748C229.755 5.52353 230.384 5.6533 231.019 5.74573C229.135 28.4735 226.862 51.2011 224.949 74.2892C220.098 72.9557 215.162 71.9462 210.176 71.2678C202.252 70.3808 194.261 70.2515 186.312 70.8804C180.767 71.3782 175.498 73.519 171.177 77.0297C166.857 80.5405 163.682 85.2614 162.06 90.587C159.452 97.8766 158.166 105.573 158.263 113.314C157.93 119.384 157.93 126.203 157.93 133.797Z" fill="black"/>
<path d="M367.746 6.52344V423.135H268.52V6.52344H367.746Z" fill="black"/>
<path d="M1371.76 213.678C1360.63 210.86 1349.14 209.712 1337.67 210.27C1322.68 209.709 1307.94 214.273 1295.89 223.212C1283.85 232.151 1275.21 244.929 1271.4 259.439C1267.49 273.228 1265.62 287.515 1265.85 301.846V422.663H1166.63V133.3H1257.15V186.322C1257.54 186.322 1257.54 186.322 1257.9 186.71C1258.29 185.962 1259.04 185.186 1259.42 184.437C1264.9 172.239 1272.46 161.087 1281.76 151.482C1289.79 143.231 1299.48 136.771 1310.19 132.529C1320.89 128.287 1332.37 126.359 1343.88 126.87C1354.1 127.258 1364.33 128.754 1374.56 129.641C1375.36 129.722 1376.14 129.977 1376.83 130.389C1375.17 158.023 1373.26 185.657 1371.76 213.678Z" fill="black"/>
<path d="M416.611 423.163V133.8H515.837V423.163H416.611Z" fill="black"/>
<path d="M515.448 86.4267H416.222V13.3376H515.448V86.4267Z" fill="black"/>
</svg>
