<svg width="1223" height="1225" viewBox="0 0 1223 1225" fill="none" xmlns="http://www.w3.org/2000/svg">
<path d="M358.017 4.43108C307.298 5.49757 257.132 15.2201 209.678 33.1803C169.136 49.0217 132.342 73.16 101.648 104.052C70.9529 134.944 47.0328 171.91 31.4169 212.586C13.7231 260.208 4.212 310.488 3.2871 361.291C0.389843 426.491 -0.242281 447.433 0.0737844 613.757C0.389849 780.081 1.12733 800.917 4.28798 866.223C5.37245 917.011 15.0808 967.243 32.9972 1014.77C48.7687 1055.42 72.8475 1092.32 103.69 1123.1C134.533 1153.89 171.459 1177.88 212.101 1193.54C259.655 1211.27 309.865 1220.79 360.599 1221.71C425.708 1224.56 446.621 1225.25 612.66 1224.93C778.7 1224.61 799.613 1223.87 864.828 1220.76C915.526 1219.66 965.67 1209.94 1013.11 1192.01C1053.7 1176.22 1090.54 1152.1 1121.27 1121.22C1152 1090.33 1175.95 1053.35 1191.59 1012.66C1209.31 965.064 1218.82 914.797 1219.72 864.007C1222.56 798.649 1223.25 777.76 1222.93 611.489C1222.61 445.218 1221.88 424.381 1218.77 359.023C1217.7 308.216 1207.99 257.964 1190.06 210.423C1174.61 169.591 1150.47 132.618 1119.31 102.073C1088.71 70.9401 1051.67 46.9019 1010.8 31.6505C963.249 13.9025 913.035 4.37719 862.299 3.48156C797.19 0.63301 776.277 0 610.185 0C444.092 0 423.285 1.05501 358.07 4.22007M365.234 1111.36C326.466 1110.96 288.053 1103.91 251.661 1090.52C225.085 1080.73 201.024 1065.12 181.232 1044.84C160.855 1025.15 145.172 1001.11 135.35 974.52C121.881 938.115 114.754 899.663 114.279 860.842C111.223 796.328 110.591 776.915 110.275 613.44C109.959 449.965 110.538 430.606 113.383 366.039C113.763 327.215 120.801 288.745 134.191 252.308C144.312 225.864 159.854 201.838 179.814 181.777C199.775 161.716 223.711 146.065 250.081 135.834C286.436 122.345 324.834 115.208 363.601 114.733C428.078 111.674 447.411 111.041 610.659 110.724C773.906 110.408 793.292 110.724 857.821 113.836C896.574 114.218 934.973 121.266 971.341 134.673C997.746 144.811 1021.74 160.376 1041.77 180.364C1061.8 200.352 1077.43 224.32 1087.65 250.725C1101.15 287.106 1108.27 325.544 1108.72 364.351C1111.78 428.918 1112.52 448.277 1112.78 611.752C1113.04 775.227 1112.52 794.64 1109.67 859.154C1109.27 897.993 1102.23 936.477 1088.86 972.938C1078.73 999.368 1063.18 1023.38 1043.23 1043.43C1023.27 1063.48 999.336 1079.13 972.974 1089.36C936.636 1102.84 898.256 1109.98 859.507 1110.46C795.03 1113.52 775.697 1114.15 612.397 1114.47C449.097 1114.79 429.817 1114.15 365.34 1111.36M863.721 285.277C863.794 299.801 868.164 313.978 876.278 326.017C884.392 338.055 895.887 347.416 909.311 352.917C922.735 358.417 937.485 359.81 951.7 356.92C965.914 354.031 978.954 346.988 989.173 336.681C999.392 326.374 1006.33 313.265 1009.12 299.011C1011.9 284.756 1010.4 269.996 1004.81 256.593C999.225 243.19 989.795 231.747 977.715 223.708C965.635 215.668 951.447 211.395 936.943 211.426C927.289 211.446 917.734 213.375 908.825 217.1C899.916 220.825 891.829 226.274 885.027 233.134C878.225 239.995 872.842 248.132 869.186 257.08C865.53 266.027 863.673 275.609 863.721 285.277ZM297.333 613.177C297.458 675.362 315.993 736.113 350.593 787.751C385.194 839.389 434.308 879.593 491.724 903.282C549.14 926.971 612.282 933.08 673.165 920.837C734.048 908.594 789.94 878.549 833.773 834.5C877.605 790.451 907.412 734.376 919.423 673.365C931.435 612.355 925.112 549.147 901.254 491.734C877.396 434.322 837.075 385.282 785.387 350.815C733.7 316.348 672.968 298.002 610.869 298.095C569.628 298.172 528.806 306.382 490.735 322.258C452.663 338.134 418.087 361.365 388.981 390.624C359.876 419.883 336.811 454.596 321.104 492.782C305.397 530.968 297.355 571.878 297.438 613.177M407.587 613.177C407.504 572.8 419.378 533.306 441.71 499.688C464.041 466.071 495.826 439.839 533.045 424.311C570.264 408.782 611.245 404.655 650.807 412.45C690.368 420.245 726.733 439.613 755.302 468.104C783.872 496.595 803.363 532.93 811.31 572.514C819.258 612.098 815.306 653.153 799.953 690.488C784.6 727.823 758.537 759.76 725.058 782.261C691.58 804.763 652.19 816.817 611.87 816.901C585.099 816.956 558.578 811.731 533.823 801.523C509.069 791.315 486.564 776.324 467.594 757.406C448.625 738.489 433.562 716.015 423.266 691.268C412.97 666.521 407.642 639.985 407.587 613.177Z" fill="black"/>
</svg>
