<svg width="1161" height="1225" viewBox="0 0 1161 1225" fill="none" xmlns="http://www.w3.org/2000/svg">
<path d="M1156.75 272.154C1144.72 206.259 1111.91 145.946 1063.13 100.038C1014.35 54.1301 952.157 25.0373 885.654 17.016C781.394 4.19919 676.344 -1.06127 571.325 1.27577H569.825C479.463 -2.68678 388.932 2.58731 299.642 17.016C233.016 24.7925 170.25 52.3561 119.442 96.1504C68.6332 139.945 32.1145 197.96 14.5975 262.71C1.81749 330.167 -2.59627 398.942 1.45619 467.479C5.11671 563.092 5.92201 658.412 14.7072 753.622C20.768 816.844 31.3494 879.55 46.3706 941.26C74.4468 1055.28 188.289 1150.2 299.825 1188.86C419.331 1229.24 547.652 1235.93 670.709 1208.18C684.253 1205.11 697.613 1201.41 710.974 1197.2C742.956 1189.08 773.516 1176.15 801.608 1158.84C801.929 1158.56 802.201 1158.22 802.414 1157.85C802.605 1157.48 802.705 1157.06 802.706 1156.64V1064.55C802.705 1064.13 802.605 1063.71 802.414 1063.34C802.256 1062.96 801.971 1062.65 801.608 1062.46C801.273 1062.23 800.902 1062.06 800.51 1061.95H799.303C720.464 1080.59 639.709 1089.92 558.697 1089.73C419.268 1089.73 381.711 1024.28 370.949 997.009C362.28 973.439 356.789 948.819 354.623 923.799C354.585 923.379 354.656 922.956 354.829 922.571C355.002 922.187 355.271 921.853 355.611 921.603C355.896 921.296 356.291 921.112 356.709 921.09H357.99C435.539 939.588 514.992 948.913 594.716 948.874C613.934 948.874 633.078 948.874 652.186 948.361C733.834 947.728 815.299 940.53 895.793 926.837C897.77 926.435 899.784 926.142 901.358 925.629C1025.82 902.019 1144.27 827.82 1156.31 639.889C1156.71 632.568 1157.92 562.396 1157.92 554.746C1162.37 460.542 1161.97 366.17 1156.72 272.008L1156.75 272.154ZM965.233 741.066H834.37V424.065C834.37 357.334 806.294 323.291 749.007 323.291C691.72 323.291 654.602 363.557 654.602 443.1V616.609H524.544V443.1C524.544 363.52 492.99 323.291 430.139 323.291C367.288 323.291 344.886 357.371 344.776 424.065V741.066H214.022V414.402C210.919 356.821 229.313 300.139 265.635 255.352C284.793 235.228 308.105 219.521 333.95 209.323C359.795 199.125 387.552 194.681 415.289 196.301C443.026 197.921 470.077 205.566 494.559 218.704C519.04 231.841 540.365 250.156 557.049 272.374L589.628 326.439L622.279 272.374C638.963 250.156 660.289 231.841 684.771 218.704C709.253 205.566 736.303 197.921 764.04 196.301C791.777 194.681 819.534 199.125 845.379 209.323C871.224 219.521 894.537 235.228 913.694 255.352C950.043 300.129 968.462 356.811 965.38 414.402V741.066H965.233Z" fill="black"/>
<path d="M965.343 414.401V741.066H834.369V424.065C834.369 357.334 806.293 323.291 749.006 323.291C691.719 323.291 654.602 363.557 654.602 443.1V616.608H524.544V443.1C524.544 363.52 492.99 323.291 430.138 323.291C367.287 323.291 344.885 357.371 344.775 424.065V741.066H213.985V414.401C210.902 356.811 229.323 300.128 265.672 255.352C284.829 235.228 308.141 219.521 333.986 209.323C359.831 199.125 387.588 194.68 415.325 196.301C443.062 197.921 470.112 205.566 494.594 218.703C519.076 231.841 540.402 250.156 557.086 272.373L589.664 326.439L622.316 272.373C639 250.156 660.325 231.841 684.807 218.703C709.289 205.566 736.34 197.921 764.077 196.301C791.814 194.68 819.57 199.125 845.415 209.323C871.26 219.521 894.572 235.228 913.729 255.352C950.078 300.128 968.499 356.811 965.416 414.401H965.343Z" fill="white"/>
</svg>
