<svg width="1216" height="1217" viewBox="0 0 1216 1217" fill="none" xmlns="http://www.w3.org/2000/svg">
<path d="M8.54694 711C13.201 737.662 19.378 764.036 27.0478 789.992C27.7774 792.858 29.1845 795.671 29.9141 797.807C37.7544 820.838 46.7822 843.447 56.9617 865.544C59.828 871.953 62.6423 877.633 65.5086 884.043C77.5993 906.813 90.4195 929.583 104.647 950.946C107.513 955.219 110.328 958.762 113.194 963.035C126.014 980.803 140.242 997.893 154.469 1014.25C159.68 1019.47 163.745 1024.68 168.696 1029.89C186.143 1048.07 204.678 1065.17 224.199 1081.11C229.41 1084.65 234.153 1088.25 239.156 1092.52C255.984 1105.43 273.579 1117.32 291.844 1128.11L308.938 1138.53C331.002 1150.86 353.822 1161.79 377.261 1171.25L383.671 1173.39C375.5 1115.73 376.221 1057.16 385.808 999.718C396.231 952.041 456.997 697.504 456.997 697.504C444.844 668.935 438.791 638.142 439.225 607.1C439.225 522.427 488.318 459.067 549.553 459.067C560.436 458.907 571.228 461.078 581.203 465.432C591.178 469.786 600.106 476.224 607.387 484.313C614.668 492.402 620.133 501.956 623.417 512.332C626.7 522.707 627.725 533.664 626.423 544.469C615.609 613.447 598.692 681.33 575.871 747.317C572.506 760.762 572.333 774.807 575.367 788.33C578.401 801.853 584.558 814.48 593.344 825.199C602.131 835.918 613.304 844.434 625.97 850.064C638.636 855.695 652.445 858.284 666.291 857.625C774.482 857.625 857.761 743.774 857.761 579.38C858.87 546.009 853.004 512.773 840.54 481.796C828.076 450.819 809.287 422.782 785.374 399.476C761.46 376.169 732.947 358.106 701.657 346.44C670.367 334.773 636.986 329.759 603.648 331.72C568.055 330.168 532.517 335.857 499.186 348.439C465.855 361.02 435.425 380.234 409.738 404.917C384.051 429.601 363.642 459.241 349.746 492.041C335.851 524.842 328.758 560.12 328.898 595.741C329.017 645.532 344.686 694.043 373.717 734.499C375.894 736.845 377.43 739.711 378.179 742.823C378.927 745.935 378.862 749.188 377.99 752.267C373.717 771.494 363.033 812.761 360.897 821.306C358.03 831.728 351.62 834.855 340.05 829.124C263.91 793.535 216.173 683.227 216.173 593.553C216.173 402.116 355.685 225.633 618.345 225.633C829.046 225.633 993.573 375.801 993.573 577.191C993.573 787.125 861.201 955.793 678.225 955.793C650.99 956.759 623.947 950.877 599.574 938.688C575.201 926.499 554.275 908.391 538.713 886.022C538.713 886.022 508.122 1002.01 500.982 1030.51C483.178 1086.48 458.049 1139.85 426.249 1189.23C441.883 1194.44 458.299 1197.77 474.664 1202.04C478.937 1202.77 483.211 1204.18 487.484 1204.91C503.848 1208.45 520.942 1210.59 538.713 1212.73L563.624 1214.86C577.851 1215.59 592.079 1217 607.036 1217C686.958 1217.05 766.108 1201.36 839.965 1170.82C913.822 1140.29 980.94 1095.5 1037.49 1039.03C1094.04 982.564 1138.9 915.511 1169.53 841.703C1200.16 767.896 1215.95 688.779 1216 608.871C1216.05 528.963 1200.35 449.827 1169.81 375.983C1139.27 302.139 1094.48 235.033 1038 178.495C981.524 121.957 914.459 77.097 840.639 46.4732C766.818 15.8493 687.688 0.0617721 607.765 0.0138736C587.092 -0.12869 566.425 0.827553 545.853 2.87932C396.155 18.358 257.507 88.7579 156.692 200.477C55.8781 312.196 0.0523703 457.307 0 607.777C0.339241 636.108 2.48034 664.389 6.41021 692.449C6.45494 698.691 7.17132 704.911 8.54694 711Z" fill="black"/>
</svg>
