<svg width="1215" height="1218" viewBox="0 0 1215 1218" fill="none" xmlns="http://www.w3.org/2000/svg">
<path d="M1214.05 156.518V1060.04C1212.81 1062.87 1211.85 1065.82 1211.19 1068.84C1207.57 1103.6 1192.88 1136.27 1169.29 1162.05C1145.69 1187.83 1114.45 1205.35 1080.15 1212.02L1057.43 1217.23H155.679L135.154 1212.91C96.4759 1205.63 61.6454 1184.82 36.8948 1154.22C12.1441 1123.62 -0.914401 1085.21 0.0498211 1045.87C0.0498211 759.056 0.0498211 472.245 0.0498211 185.435C0.0498211 173.19 0.779825 160.947 1.9261 148.963C5.28814 114.27 19.7034 81.5728 43.0515 55.692C66.3996 29.8111 97.4462 12.1154 131.612 5.21064C139.636 3.54333 147.604 1.77151 155.628 0H1057.38C1060.21 1.24695 1063.16 2.20659 1066.19 2.86529C1100.93 6.54011 1133.57 21.2872 1159.29 44.9288C1185.02 68.5704 1202.46 99.8551 1209.05 134.166C1210.72 141.357 1212.38 148.911 1214.05 156.518ZM941.348 1027.63C964.273 1027.63 987.195 1027.21 1010.17 1027.63C1019.81 1027.63 1023.05 1025.18 1023.05 1015.07C1023.23 960.057 1017.22 905.195 1005.12 851.523C981.55 737.757 934.321 630.216 866.507 535.878C798.693 441.54 711.806 362.511 611.48 303.918C488.27 229.869 347.518 190.079 203.775 188.666C193.719 188.666 189.963 190.854 190.12 201.744C190.693 247.699 190.641 293.654 190.12 339.661C190.12 349.665 193.453 351.748 202.935 352.53C240.317 354.423 277.576 358.303 314.545 364.15C466.135 393.259 603.073 473.686 702.33 591.902C801.586 710.119 857.104 858.91 859.542 1013.25C859.542 1025.03 863.813 1028.05 874.807 1027.68C897.003 1027.11 919.204 1027.63 941.348 1027.63ZM190.329 634.825C199.812 635.763 207.992 636.91 216.381 637.275C269.884 639.263 322.182 653.732 369.097 679.529C430.843 710.946 482.863 758.585 519.581 817.334C556.298 876.082 576.327 943.722 577.51 1012.99C578.031 1024.45 581.572 1027.74 592.774 1027.58C637.844 1027.06 682.912 1027.11 728.241 1027.58C737.828 1027.58 742.101 1025.18 741.006 1014.97C737.672 983.969 736.944 952.447 731.161 922.019C707.768 797.884 642.487 685.534 546.224 603.742C449.96 521.95 328.544 475.669 202.261 472.629C192.935 472.316 189.966 475.129 190.018 484.664C190.487 530.254 190.018 575.792 190.018 621.382L190.329 634.825ZM190.329 913.316C189.95 928.197 192.58 943.002 198.057 956.843C203.534 970.683 211.747 983.276 222.207 993.867C232.667 1004.46 245.153 1012.83 258.925 1018.48C272.696 1024.13 287.469 1026.94 302.353 1026.74C324.595 1026.85 346.369 1020.36 364.925 1008.09C383.481 995.827 397.986 978.338 406.61 957.835C415.233 937.331 417.589 914.733 413.377 892.892C409.165 871.051 398.573 850.948 382.943 835.122C367.313 819.296 347.348 808.457 325.561 803.972C303.775 799.488 281.143 801.559 260.534 809.926C239.924 818.292 222.255 832.579 209.76 850.981C197.265 869.383 190.505 891.074 190.329 913.316Z" fill="black"/>
</svg>
